<svg width="23" height="23" viewBox="0 0 23 23" fill="none" xmlns="http://www.w3.org/2000/svg">
<path d="M10.5422 15.9706C10.6374 15.9699 10.7295 16.0041 10.801 16.0669C10.8726 16.1296 10.9186 16.2164 10.9303 16.3108V21.8308C10.9307 22.1312 10.8154 22.4202 10.6085 22.6379C10.4015 22.8556 10.1187 22.9852 9.81866 23H1.95075C1.65383 22.9995 1.36814 22.8865 1.15119 22.6838C0.934252 22.4811 0.802181 22.2037 0.78158 21.9075V16.3635C0.780852 16.2684 0.815102 16.1763 0.877823 16.1047C0.940543 16.0332 1.02736 15.9872 1.12179 15.9754H10.5422V15.9706ZM21.8553 15.9706C21.9502 15.9709 22.0417 16.0055 22.1131 16.0681C22.1844 16.1306 22.2307 16.2168 22.2435 16.3108V21.8308C22.2438 22.132 22.1278 22.4217 21.9199 22.6395C21.7119 22.8573 21.4279 22.9864 21.127 23H13.2591C12.9627 22.9994 12.6775 22.8863 12.4614 22.6835C12.2452 22.4806 12.1141 22.2033 12.0947 21.9075V16.3635C12.094 16.2684 12.1282 16.1763 12.1909 16.1047C12.2537 16.0332 12.3405 15.9872 12.4349 15.9754H21.8314L21.8553 15.9706ZM7.51866 17.5854L7.47554 17.619L5.27137 20.0435L4.26033 19.0852C4.21109 19.0363 4.14627 19.0061 4.07712 19C4.00797 18.9939 3.93886 19.0121 3.88179 19.0517L3.84346 19.0852L3.42658 19.459C3.40123 19.4785 3.38015 19.5031 3.36463 19.5311C3.34911 19.5591 3.33948 19.59 3.33634 19.6218C3.3332 19.6537 3.33661 19.6859 3.34636 19.7164C3.35611 19.7469 3.37199 19.775 3.39304 19.7992L3.42658 19.8375L4.86408 21.1935C4.97524 21.3032 5.12483 21.3651 5.28096 21.366C5.35868 21.3683 5.43601 21.3541 5.50786 21.3244C5.5797 21.2947 5.64445 21.2501 5.69783 21.1935L8.34283 18.3952C8.38243 18.3476 8.40643 18.289 8.41157 18.2272C8.41672 18.1655 8.40275 18.1037 8.37158 18.0502L8.34283 18.0167L7.92596 17.6429C7.87934 17.5816 7.8104 17.5412 7.73414 17.5304C7.65787 17.5196 7.58043 17.5394 7.51866 17.5854ZM18.8318 17.5854L18.7887 17.619L16.5557 20.0435L15.5447 19.0852C15.4962 19.0366 15.4323 19.0067 15.3639 19.0005C15.2956 18.9944 15.2273 19.0125 15.171 19.0517L15.1278 19.0852L14.711 19.459C14.6859 19.4789 14.6653 19.5037 14.6502 19.5319C14.6351 19.56 14.6259 19.591 14.6232 19.6229C14.6206 19.6547 14.6244 19.6868 14.6345 19.7171C14.6447 19.7474 14.6609 19.7753 14.6822 19.7992L14.711 19.8375L16.1485 21.1935C16.2596 21.3032 16.4092 21.3651 16.5653 21.366C16.6431 21.3686 16.7205 21.3546 16.7924 21.3248C16.8643 21.2951 16.929 21.2503 16.9822 21.1935L19.6464 18.3713C19.6804 18.3201 19.6985 18.2601 19.6985 18.1987C19.6985 18.1374 19.6804 18.0774 19.6464 18.0262V17.9927L19.2295 17.619C19.1798 17.564 19.1111 17.53 19.0373 17.5237C18.9634 17.5175 18.89 17.5396 18.8318 17.5854ZM9.84262 12.0654C10.1285 12.0762 10.3997 12.1949 10.6015 12.3976C10.8033 12.6003 10.9208 12.872 10.9303 13.1579V14.4085C10.9319 14.5002 10.901 14.5894 10.8432 14.6604C10.7853 14.7314 10.7041 14.7797 10.6141 14.7967H0.364704C0.273535 14.7948 0.186191 14.7597 0.119118 14.6979C0.0520453 14.6361 0.00987145 14.552 0.000537787 14.4613V13.2394C-0.00829707 12.9517 0.091996 12.6712 0.281294 12.4544C0.470593 12.2376 0.734892 12.1003 1.02116 12.0702H9.84262V12.0654ZM21.908 12.0654C22.1947 12.075 22.4671 12.1932 22.67 12.396C22.8728 12.5988 22.991 12.8712 23.0005 13.1579V14.4085C23.0021 14.5002 22.9712 14.5894 22.9134 14.6604C22.8555 14.7314 22.7743 14.7797 22.6843 14.7967H12.4301C12.339 14.7935 12.2522 14.7572 12.1861 14.6946C12.1199 14.6319 12.0789 14.5472 12.0707 14.4565V13.2394C12.0619 12.9517 12.1622 12.6712 12.3515 12.4544C12.5408 12.2376 12.8051 12.1003 13.0914 12.0702H21.908V12.0654ZM16.158 3.91958C16.2524 3.92003 16.3433 3.9548 16.4138 4.01742C16.4844 4.08003 16.5297 4.16619 16.5414 4.25979V9.76062C16.542 10.0579 16.4294 10.3442 16.2265 10.5614C16.0235 10.7786 15.7455 10.9103 15.4489 10.9298H7.60491C7.30756 10.9281 7.02184 10.8141 6.80502 10.6106C6.58819 10.4071 6.45629 10.1291 6.43575 9.8325V4.3125C6.43619 4.21818 6.47097 4.12724 6.53358 4.05669C6.59619 3.98614 6.68235 3.94081 6.77595 3.92917H16.1772L16.158 3.91958ZM13.1537 5.53438L13.1153 5.56792L10.8824 7.9925L9.87137 7.03417C9.82292 6.9856 9.75892 6.95563 9.69059 6.9495C9.62226 6.94337 9.55395 6.96147 9.49762 7.00063L9.4545 7.03417L9.03762 7.40792C9.01284 7.42788 8.99228 7.45259 8.97715 7.48058C8.96202 7.50858 8.95262 7.53931 8.94949 7.57099C8.94637 7.60266 8.94959 7.63463 8.95896 7.66505C8.96833 7.69546 8.98367 7.7237 9.00408 7.74813L9.03762 7.78646L10.4751 9.13771C10.5293 9.19351 10.5941 9.23793 10.6657 9.26838C10.7373 9.29882 10.8142 9.31467 10.892 9.315C10.9702 9.31731 11.0479 9.30265 11.1199 9.27205C11.1918 9.24144 11.2563 9.19561 11.3089 9.13771L13.9587 6.34417C13.9963 6.29546 14.0187 6.2367 14.0229 6.1753C14.0272 6.11389 14.0132 6.0526 13.9826 5.99917L13.9587 5.96562L13.5418 5.59188C13.498 5.53919 13.4374 5.50326 13.3701 5.49017C13.3029 5.47707 13.2332 5.48761 13.1728 5.52L13.1537 5.53438ZM16.1772 0C16.4736 0.000576892 16.7588 0.113721 16.9749 0.316542C17.1911 0.519363 17.3221 0.79672 17.3416 1.0925V2.34312C17.3403 2.43771 17.3053 2.52874 17.243 2.59987C17.1806 2.671 17.095 2.71758 17.0014 2.73125H6.04762C5.9532 2.73212 5.86169 2.69854 5.79025 2.6368C5.7188 2.57506 5.67232 2.48939 5.6595 2.39583V1.16917C5.65878 0.872695 5.77071 0.587021 5.97265 0.369958C6.17459 0.152895 6.45145 0.020655 6.74721 0H16.1772Z" fill="black"/>
</svg>
